<svg width="24" height="27" viewBox="0 0 24 27" fill="none" xmlns="http://www.w3.org/2000/svg">
<g clip-path="url(#clip0)">
<g opacity="0.15">
<path opacity="0.15" d="M17.9377 1.13657L11.9458 9.23657V23.291L13.6075 21.5612V10.2345L22.1055 1.13657H17.9377Z" fill="#9F9FB1"/>
</g>
<g opacity="0.62">
<path opacity="0.62" d="M6.06235 1.13657L10.9609 8.90947V24.2279L10.2518 25.0429V9.93513L1.73218 0.970245L6.06235 1.13657Z" fill="#3C3C4D" fill-opacity="0.29"/>
</g>
<path d="M0.16176 0.97023L9.30384 10.3343C9.25205 10.2823 9.21098 10.2202 9.18309 10.1516C9.15519 10.083 9.14104 10.0094 9.14146 9.93512V26.429C9.13958 26.5425 9.17179 26.6539 9.23375 26.7481C9.29571 26.8423 9.38442 26.9148 9.48788 26.9556C9.58953 27.0004 9.70214 27.0122 9.81054 26.9894C9.91893 26.9666 10.0179 26.9103 10.0941 26.8281L14.4243 22.3596C14.4761 22.3076 14.5171 22.2454 14.545 22.1768C14.5729 22.1083 14.5871 22.0347 14.5867 21.9604V10.2345C14.5878 10.3097 14.574 10.3844 14.5461 10.454C14.5182 10.5235 14.4767 10.5866 14.4243 10.6392L23.8153 0.97023C23.8989 0.89487 23.9577 0.794962 23.9838 0.68412C24.0099 0.573279 24.002 0.456894 23.9611 0.350824C23.9203 0.244754 23.8485 0.154158 23.7556 0.0913793C23.6627 0.0286008 23.5531 -0.00330673 23.4419 4.4053e-06H0.54065C0.428917 -0.00451351 0.318561 0.0265246 0.224748 0.0888528C0.130934 0.151181 0.05827 0.24174 0.0167411 0.348083C-0.0247878 0.454426 -0.0331426 0.571334 -0.00717498 0.682738C0.0187926 0.794142 0.077808 0.894574 0.16176 0.97023ZM23.0522 0.166329L13.6124 9.83532C13.5606 9.88732 13.5195 9.94945 13.4916 10.018C13.4637 10.0866 13.4496 10.1602 13.45 10.2345V21.9604C13.4512 21.8118 13.5072 21.6691 13.607 21.5612L9.30384 26.0575C9.38068 25.9763 9.47994 25.921 9.5883 25.8992C9.69666 25.8774 9.80894 25.8901 9.91007 25.9355C10.0116 25.977 10.0986 26.0489 10.1595 26.1419C10.2203 26.235 10.2523 26.3447 10.2511 26.4567V9.93512C10.2522 9.8599 10.2384 9.78523 10.2105 9.71565C10.1826 9.64607 10.1411 9.58304 10.0887 9.53039L0.946604 0.166329C1.02866 0.243085 1.08567 0.343851 1.10988 0.454941C1.13409 0.566031 1.12433 0.682061 1.08192 0.787273C1.03964 0.89685 0.964382 0.989781 0.867055 1.05259C0.769729 1.11539 0.655399 1.1448 0.54065 1.13655H23.4419C23.3292 1.14357 23.2172 1.11433 23.1216 1.05292C23.0259 0.99152 22.9514 0.901027 22.9085 0.794107C22.8655 0.687186 22.8563 0.569188 22.8821 0.456623C22.9078 0.344059 22.9673 0.24256 23.0522 0.166329Z" fill="#9F9FB1"/>
<g opacity="0.62">
<path opacity="0.62" d="M7.0582 2.71665H16.7686L17.9378 1.13657H6.06226L7.0582 2.71665Z" fill="#3C3C4D" fill-opacity="0.29"/>
</g>
</g>
<defs>
<clipPath id="clip0">
<rect width="24" height="27" fill="white"/>
</clipPath>
</defs>
</svg>
